#!OML:ASF E:/inclinewalkrobotboard/Project1/Captureday1/Session1/subject1.ASF
:FULLY-SPECIFIED
:DEGREES
351
root 0 0 0 -1.177522724765167 -2.8449472952264707 -0.8900450446592438
lowerback 10.943558450426812 0.5614095905258104 0.4789111642197418
upperback -1.097051803711403 0.8805949909646624 0.9204401125793995
thorax -7.268642762350014 0.4045997365014551 0.4541059885361287
lowerneck -13.44376100753259 -1.4253659156347664 0.19249720673920762
upperneck 19.050344662290613 -1.4305461363078822 -2.3158546272853338
head 8.21884435968691 -0.8204506604331396 -0.991782484963471
rclavicle -4.632752476981294E-16 -2.0685964359509788E-16
rhumerus -12.111347716401177 -6.989282678077214 -67.48585902616274
rradius 42.62658523468686
rwrist 11.851762600189973
rhand -23.488550008646882 -4.966106607852936
rfingers 7.125020000000135
rthumb 3.2181440016681124 -35.129761569760845
lclavicle -9.909171686538712E-16 -7.958199793618689E-16
lhumerus -12.74217123225505 -4.022658735253093 68.94753035157117
lradius 43.389898378529324
lwrist -4.8883392881726655
lhand -33.19606324887646 -10.101340288377541
lfingers 7.125020000000132
lthumb -6.494374599570034 18.954453607080687
rfemur -9.988365000963833 1.3269069061923984 25.622944012285473
rtibia 67.02759487372225
rfoot 3.226807635954719 -2.098544508872795
rtoes 11.185551624311556
lfemur 6.549484702846785 -5.409939689119329 -28.08358025199503
ltibia 7.823069953631254
lfoot -15.771287498050217 1.5175455298761964
ltoes -1.5152589877746534
352
root 0 0 0 -1.1705261927792212 -2.8464578039391477 -0.882855357024023
lowerback 10.94607579821894 0.5619871681245608 0.47590964328356694
upperback -1.1054715691126584 0.880872928939167 0.9166515020900383
thorax -7.279911522014608 0.40492610466808543 0.45104201109806175
lowerneck -13.424259780008159 -1.4171279050132501 0.20390599958961558
upperneck 19.049455778000127 -1.4183682185005893 -2.3324490372834616
head 8.215411896915716 -0.8151576582363196 -0.9978542064075046
rclavicle -4.610228116805137E-16 -2.1047100438360767E-16
rhumerus -12.021257882252497 -6.930086087905725 -67.42943960051655
rradius 42.71438560107103
rwrist 11.895451800371271
rhand -23.519471689170764 -5.117360672369365
rfingers 7.125020000000135
rthumb 3.186545292369563 -35.27921445866726
lclavicle -9.841068399757361E-16 -7.994281277736721E-16
lhumerus -12.515229539541949 -4.077323972305899 68.78606304925776
lradius 43.57165020202609
lwrist -5.013894013300267
lhand -33.273000263653486 -10.514480425642795
lfingers 7.125020000000131
lthumb -6.568757575960374 18.540147382156857
rfemur -15.306916893910566 0.5336453784524982 23.372902429797442
rtibia 68.93484787806258
rfoot 4.777106215347988 -2.954425308364428
rtoes 10.610779758421316
lfemur 8.904857242788642 -5.209713907458503 -28.935798843699793
ltibia 9.109481444571603
lfoot -15.572185706706922 0.4530458395368884
ltoes -1.9749519632210326
353
root 0 0 0 -1.1620742694997228 -2.848295554705305 -0.8741916111842221
lowerback 10.949139593895246 0.5627204908016654 0.4725122412902233
upperback -1.1156718714177942 0.881176333592099 0.912039817345425
thorax -7.293588834505235 0.40531725764242404 0.4473013026267548
lowerneck -13.400732385799227 -1.4072231373968425 0.2177430503222461
upperneck 19.048345023024034 -1.4036833384002398 -2.3523385632004263
head 8.211236818450702 -0.8088079795326976 -1.005172733368455
rclavicle -4.585779868262756E-16 -2.1711945748741374E-16
rhumerus -11.889609558274122 -6.843617819901687 -67.34748339870022
rradius 42.841015933428885
rwrist 11.958683784736154
rhand -23.564150620177717 -5.3369977861344156
rfingers 7.125020000000134
rthumb 3.1407821502687137 -35.495731048323805
lclavicle -9.757017278744894E-16 -8.04056788500924E-16
lhumerus -12.226199988184995 -4.147167480109541 68.58031654284515
lradius 43.8034101146657
lwrist -5.173579174640153
lhand -33.371368723527695 -11.042386819985328
lfingers 7.125020000000129
lthumb -6.663647422308037 18.014033368918657
rfemur -20.023342415424473 0.09383221807023645 21.51311170365331
rtibia 68.75730807468861
rfoot 5.460102841141275 -3.93037267217807
rtoes 9.68373394772095
lfemur 10.846969654025562 -4.9745205788662 -29.5861771586049
ltibia 10.661389860132157
lfoot -15.265753504155217 -0.5963939734429267
ltoes -2.490700310673888
354
root 0 0 0 -1.153590978392173 -2.8501174583688327 -0.86553582353771
lowerback 10.952209889089554 0.563454769646549 0.4692066861503763
upperback -1.1258765160773043 0.8814556156463096 0.9074113717991795
thorax -7.307299074470016 0.4056943025476656 0.4435556958126816
lowerneck -13.37714873732788 -1.397349435330383 0.23163081042278139
upperneck 19.04711183506753 -1.3890792048833052 -2.372170838889855
head 8.207015000749857 -0.802494528021652 -1.0124835303198232
rclavicle -4.565353443569543E-16 -2.255166811984271E-16
rhumerus -11.73967132236319 -6.744991516826312 -67.25423109180318
rradius 42.984426563116685
rwrist 12.030459318230108
rhand -23.61474247563776 -5.585979717260125
rfingers 7.125020000000133
rthumb 3.089048864761801 -35.7414174966255
lclavicle -9.671346045712225E-16 -8.090175112658996E-16
lhumerus -11.906894632642281 -4.224549742304296 68.35290926748495
lradius 44.05947985603628
lwrist -5.349398743495938
lhand -33.48042649336714 -11.626742140740953
lfingers 7.125020000000128
lthumb -6.768485904585688 17.433061946598684
rfemur -23.984050192515443 -0.04867823279624783 20.050101134085992
rtibia 67.01953941757807
rfoot 5.486313708488819 -4.937096598578306
rtoes 8.557790524101135
lfemur 12.552748529505083 -4.714153573795939 -30.0927813630762
ltibia 12.450799307246243
lfoot -14.83750044116801 -1.6789732268521358
ltoes -3.087445796462915
355
root 0 0 0 -1.1460932273797355 -2.8517023332710005 -0.8579159772787417
lowerback 10.954904217945776 0.564079666219538 0.4663024509629681
upperback -1.1348429872994061 0.8816869887137512 0.903346046093274
thorax -7.319381335186082 0.40600984106340227 0.4402734006079946
lowerneck -13.35631959657874 -1.388681302214826 0.24389759583249665
upperneck 19.04587743303422 -1.376334810155757 -2.389615653575179
head 8.203259551037394 -0.7969669549271627 -1.0189127503460356
rclavicle -4.552247093765706E-16 -2.3429152331227817E-16
rhumerus -11.590105738707749 -6.646494805247956 -67.16114017608847
rradius 43.12707211250542
rwrist 12.101976275997462
rhand -23.665042040569546 -5.833466030972859
rfingers 7.125020000000133
rthumb 3.0377688712943924 -35.98603357669134
lclavicle -9.589649038885613E-16 -8.138150743700164E-16
lhumerus -11.58532387801873 -4.302676506485684 68.12370652747875
lradius 44.31717899398343
lwrist -5.525820635461661
lhand -33.59066668926245 -12.216215330400981
lfingers 7.125020000000126
lthumb -6.874098456839273 16.847951281539764
rfemur -27.185961484871058 0.03309303866350666 18.94781460201028
rtibia 64.25275096757163
rfoot 5.059294144294579 -5.910662567730508
rtoes 7.365274874102174
lfemur 14.141425227094198 -4.431034575698518 -30.49796995557397
ltibia 14.481874879792827
lfoot -14.271193027228552 -2.8334925820496286
ltoes -3.7698972886591324
